<svg xmlns="http://www.w3.org/2000/svg" height="512" width="512" xmlns:v="https://vecta.io/nano"><style><![CDATA[.B{fill:#ffec5f}.C{opacity:.1}.D{fill:#c4f0ff}]]></style><circle cx="256" cy="248.73" r="243" fill="#26a6d1"/><defs><circle cx="256" cy="248.73" id="A" r="243"/><path id="B" d="M133.15 195.94h32.84"/></defs><clipPath id="C"><use href="#A"/></clipPath><g opacity=".5" clip-path="url(#C)" class="D"><path d="M264.03 311.56c4.36 1.39 8.61 3.23 12.33 5.98 7.24 5.35 11.91 13.39 14.44 22.11.7 2.43 3.31.42 4.87-.04a25.5 25.5 0 0 1 8.89-1.05c4.62.29 9.2 1.44 13.32 3.64 7.76 4.15 12.96 11.76 15.05 20.43.43 1.77.26 4.02 2.49 4.07a15.8 15.8 0 0 1 6.71 1.61c3.96 1.98 9.2 7.5 9.04 12.4-.27 8.35-2.51 16.53-11.15 19.38-4.74 1.56-10.74.55-15.62.55h-73.42l-32.76-.03c-6.12-.01-11.78.67-17.47-1.99-18.65-8.73-21.5-37.28-4.84-49.68 4.5-3.35 9.95-4.99 15.45-5.25 3.42-.16 4.39.02 5.3-3.58.83-3.29 1.98-6.5 3.52-9.51 2.54-4.99 6.14-9.34 10.54-12.66 2.27-1.71 4.72-3.15 7.28-4.34 1.35-.63 2.77-1.09 4.13-1.68 3.11-1.35 15.26-2.48 21.89-.37z"/></g><defs><circle cx="256" cy="248.73" id="D" r="243"/></defs><clipPath id="E"><use href="#D"/></clipPath><g opacity=".5" clip-path="url(#E)" class="D"><path d="M75.9 96.97c4.36 1.39 8.61 3.23 12.33 5.98 7.24 5.35 11.91 13.39 14.44 22.11.7 2.43 3.31.42 4.87-.04a25.5 25.5 0 0 1 8.89-1.05c4.62.29 9.2 1.44 13.32 3.64 7.76 4.15 12.96 11.76 15.05 20.43.43 1.77.26 4.02 2.49 4.07a15.8 15.8 0 0 1 6.71 1.61c3.96 1.98 9.2 7.5 9.04 12.4-.28 8.34-2.51 16.53-11.15 19.38-4.74 1.56-10.74.55-15.62.55H62.85l-32.76-.03c-6.12-.01-11.78.67-17.47-1.99-18.64-8.73-21.5-37.28-4.84-49.68 4.5-3.35 9.95-4.99 15.45-5.25 3.42-.16 4.39.02 5.3-3.58.83-3.29 1.98-6.5 3.52-9.51 2.54-4.99 6.14-9.34 10.55-12.66 2.27-1.71 4.72-3.15 7.28-4.34 1.35-.63 2.77-1.09 4.13-1.68 3.11-1.35 15.26-2.48 21.9-.37z"/></g><defs><circle cx="256" cy="248.73" id="F" r="243"/></defs><clipPath id="G"><use href="#F"/></clipPath><path d="M316.21 132.28l-342.5 198.77 14.6 28.35z" clip-path="url(#G)" class="B C"/><defs><circle cx="256" cy="248.73" id="H" r="243"/></defs><clipPath id="I"><use href="#H"/></clipPath><path d="M316.21 132.28L6.91 379.57l18.64 25.88z" clip-path="url(#I)" class="B C"/><defs><circle cx="256" cy="248.73" id="J" r="243"/></defs><clipPath id="K"><use href="#J"/></clipPath><path d="M316.21 132.28L44.79 420.64l22.1 22.99z" clip-path="url(#K)" class="B C"/><defs><circle cx="256" cy="248.73" id="L" r="243"/></defs><clipPath id="M"><use href="#L"/></clipPath><path d="M316.21 132.28L88.41 456.2l25.13 19.63z" clip-path="url(#M)" class="B C"/><defs><circle cx="256" cy="248.73" id="N" r="243"/></defs><clipPath id="O"><use href="#N"/></clipPath><path d="M316.21 132.28L150.62 492l28.26 14.77z" clip-path="url(#O)" class="B C"/><defs><circle cx="256" cy="248.73" id="P" r="243"/></defs><clipPath id="Q"><use href="#P"/></clipPath><path d="M316.21 132.28l-102.5 382.51 30.35 9.79z" clip-path="url(#Q)" class="B C"/><defs><circle cx="256" cy="248.73" id="R" r="243"/></defs><clipPath id="S"><use href="#R"/></clipPath><path d="M316.21 132.28l-32.89 394.63 31.61 4.24z" clip-path="url(#S)" class="B C"/><defs><circle cx="256" cy="248.73" id="T" r="243"/></defs><clipPath id="U"><use href="#T"/></clipPath><path d="M316.21 132.28l44.89 393.45 31.83-2.02z" clip-path="url(#U)" class="B C"/><defs><circle cx="256" cy="248.73" id="V" r="243"/></defs><clipPath id="W"><use href="#V"/></clipPath><path d="M316.21 132.28L450.84 504.7l30.5-9.32z" clip-path="url(#W)" class="B C"/><defs><circle cx="256" cy="248.73" id="X" r="243"/></defs><clipPath id="Y"><use href="#X"/></clipPath><path d="M316.21 132.28l215.14 332.46 27.61-15.96z" clip-path="url(#Y)" class="B C"/><defs><circle cx="256" cy="248.73" id="Z" r="243"/></defs><clipPath id="a"><use href="#Z"/></clipPath><path d="M316.21 132.28l287.14 272.7 23.09-21.99z" clip-path="url(#a)" class="B C"/><defs><circle cx="256" cy="248.73" id="b" r="243"/></defs><clipPath id="c"><use href="#b"/></clipPath><path d="M316.21 132.28L-62.64 247.55l7.74 30.94z" clip-path="url(#c)" class="B C"/><defs><circle cx="256" cy="248.73" id="d" r="243"/></defs><clipPath id="e"><use href="#d"/></clipPath><path d="M316.21 132.28l-395.74 14.47-.44 31.89z" clip-path="url(#e)" class="B C"/><defs><circle cx="256" cy="248.73" id="f" r="243"/></defs><clipPath id="g"><use href="#f"/></clipPath><path d="M316.21 132.28L-70.28 46.01l-8.5 30.74z" clip-path="url(#g)" class="B C"/><defs><circle cx="256" cy="248.73" id="h" r="243"/></defs><clipPath id="i"><use href="#h"/></clipPath><path d="M316.21 132.28L-41.77-37.02-56.84-8.92z" clip-path="url(#i)" class="B C"/><defs><circle cx="256" cy="248.73" id="j" r="243"/></defs><clipPath id="k"><use href="#j"/></clipPath><path d="M316.21 132.28L25.65-136.77 2.83-114.49z" clip-path="url(#k)" class="B C"/><defs><circle cx="256" cy="248.73" id="l" r="243"/></defs><clipPath id="m"><use href="#l"/></clipPath><path d="M316.21 132.28L151.7-227.93l-29.64 11.78z" clip-path="url(#m)" class="B C"/><defs><circle cx="256" cy="248.73" id="n" r="243"/></defs><clipPath id="o"><use href="#n"/></clipPath><path d="M289.08 193.96l27.13 57.09 27.13-57.09z" clip-path="url(#o)" class="B"/><defs><circle cx="256" cy="248.73" id="p" r="243"/></defs><clipPath id="q"><use href="#p"/></clipPath><path d="M379.31 156.59l21.19 59.56-59.56-21.19z" clip-path="url(#q)" class="B"/><defs><circle cx="256" cy="248.73" id="r" r="243"/></defs><clipPath id="s"><use href="#r"/></clipPath><g clip-path="url(#s)" class="B"><circle cx="316.21" cy="132.28" r="75.16"/></g><defs><circle cx="256" cy="248.73" id="t" r="243"/></defs><clipPath id="u"><use href="#t"/></clipPath><g clip-path="url(#u)"><circle cx="316.21" cy="132.28" r="75.16" fill="#ffec6d"/></g><defs><circle cx="256" cy="248.73" id="v" r="243"/></defs><clipPath id="w"><use href="#v"/></clipPath><g clip-path="url(#w)" class="B"><circle cx="316.21" cy="132.28" r="63.29"/></g><defs><circle cx="256" cy="248.73" id="x" r="243"/></defs><clipPath id="y"><use href="#x"/></clipPath><g clip-path="url(#y)" class="B"><circle cx="316.21" cy="132.28" r="43.06"/></g><defs><circle cx="256" cy="248.73" id="z" r="243"/></defs><clipPath id="AA"><use href="#z"/></clipPath><g clip-path="url(#AA)" class="D"><path d="M405.34 111.77c-7.13 2.23-14.08 5.19-20.17 9.61-11.84 8.6-19.48 21.51-23.6 35.53-1.15 3.91-5.41.68-7.96-.07-4.71-1.38-9.63-1.99-14.53-1.69-7.55.46-15.04 2.31-21.78 5.85-12.68 6.67-21.19 18.89-24.61 32.84-.7 2.85-.42 6.46-4.07 6.54-3.79.09-7.55.9-10.97 2.59-6.47 3.19-15.05 12.05-14.79 19.92.45 13.41 4.11 26.57 18.24 31.14 7.75 2.51 17.56.89 25.53.89l120.04.01 53.57-.05c10-.02 19.26 1.08 28.57-3.2 30.48-14.03 35.15-59.9 7.91-79.83-7.36-5.38-16.27-8.02-25.26-8.44-5.6-.26-7.18.04-8.67-5.75-1.36-5.29-3.24-10.44-5.75-15.28a59.1 59.1 0 0 0-17.24-20.35 65.7 65.7 0 0 0-11.91-6.97c-2.21-1.01-4.52-1.75-6.76-2.7-5.09-2.17-24.96-3.99-35.8-.6z"/></g><path d="M170.45 384.04V181.43c0-7.46-7.87-13.51-17.58-13.51h-38.7c-9.71 0-17.58 6.05-17.58 13.51v202.61c-19.17 12.32-31.9 33.93-31.9 58.55 0 38.33 30.82 69.4 68.83 69.4s68.83-31.07 68.83-69.4c0-24.62-12.73-46.23-31.9-58.55z" fill="#b3b3b3"/><path d="M173.27 382.27V181.32c0-7.4-7.87-13.4-17.58-13.4h-38.7c-9.71 0-17.58 6-17.58 13.4v200.95c-19.17 12.22-31.9 33.65-31.9 58.07 0 38.02 30.82 68.83 68.83 68.83s68.83-30.82 68.83-68.83c0-24.42-12.73-45.85-31.9-58.07z" fill="#fff"/><path d="M167.45 391.4l-5.01-3.19v-110.4h-52.21v110.4l-5.01 3.19a57.8 57.8 0 0 0-26.89 48.94 58.1 58.1 0 0 0 58 58 58.1 58.1 0 0 0 58-58 57.8 57.8 0 0 0-26.89-48.94z" fill="#d51920"/><g fill="none" stroke="#4d4d4d" stroke-width="6.25" stroke-linecap="round" stroke-miterlimit="10"><use href="#B"/><use href="#B" y="28.27"/><use href="#B" y="56.53"/><use href="#B" y="84.79"/><use href="#B" y="113.06"/><use href="#B" y="141.32"/><use href="#B" y="169.59"/></g><path d="M149.05 508a68.4 68.4 0 0 1-12.71 1.18c-38.01 0-68.84-30.82-68.84-68.84 0-24.42 12.73-45.85 31.9-58.07V181.32c0-7.4 7.88-13.4 17.59-13.4h25.43c-9.71 0-17.59 6-17.59 13.4v200.94c-19.17 12.22-31.89 33.66-31.89 58.07 0 33.68 24.18 61.7 56.11 67.66z" opacity=".2"/><path d="M193.86 440.34c0 38.02-30.82 68.84-68.83 68.84a69.1 69.1 0 0 1-7.07-.36c34.7-3.54 61.77-32.84 61.77-68.48 0-24.42-12.73-45.85-31.9-58.07V181.32c0-7.4-7.88-13.4-17.59-13.4h14.14c9.71 0 17.59 6 17.59 13.4v200.94c19.17 12.22 31.89 33.66 31.89 58.07z" opacity=".4" fill="#fff"/></svg>